<mxfile host="app.diagrams.net" agent="Mozilla/5.0 (Windows NT 10.0; Win64; x64) AppleWebKit/537.36 (KHTML, like Gecko) Chrome/135.0.0.0 Safari/537.36" version="26.2.14">
  <diagram id="N1WUuwyXlp2mcpfhNFlF" name="Page-1">
    <mxGraphModel dx="2194" dy="1155" grid="1" gridSize="10" guides="1" tooltips="1" connect="1" arrows="1" fold="1" page="1" pageScale="1" pageWidth="850" pageHeight="1100" math="0" shadow="0">
      <root>
        <mxCell id="0" />
        <mxCell id="1" parent="0" />
        <mxCell id="5" value="Subnetting" style="whiteSpace=wrap;strokeWidth=2;" parent="1" vertex="1">
          <mxGeometry x="756" y="8" width="137" height="54" as="geometry" />
        </mxCell>
        <mxCell id="6" value="IP Addressing" style="whiteSpace=wrap;strokeWidth=2;" parent="1" vertex="1">
          <mxGeometry x="270" y="112" width="154" height="54" as="geometry" />
        </mxCell>
        <mxCell id="7" value="Assigning IP Ranges&#xa;Range: 42.50.0.0/16" style="whiteSpace=wrap;strokeWidth=2;" parent="1" vertex="1">
          <mxGeometry x="1246" y="112" width="197" height="54" as="geometry" />
        </mxCell>
        <mxCell id="8" value="Private IP Addresses" style="whiteSpace=wrap;strokeWidth=2;" parent="1" vertex="1">
          <mxGeometry x="121" y="216" width="202" height="54" as="geometry" />
        </mxCell>
        <mxCell id="9" value="Public IP Addresses" style="whiteSpace=wrap;strokeWidth=2;" parent="1" vertex="1">
          <mxGeometry x="373" y="216" width="196" height="54" as="geometry" />
        </mxCell>
        <mxCell id="10" value="Class A" style="whiteSpace=wrap;strokeWidth=2;" parent="1" vertex="1">
          <mxGeometry x="8" y="357" width="109" height="54" as="geometry" />
        </mxCell>
        <mxCell id="11" value="Class B" style="whiteSpace=wrap;strokeWidth=2;" parent="1" vertex="1">
          <mxGeometry x="167" y="357" width="110" height="54" as="geometry" />
        </mxCell>
        <mxCell id="12" value="Class C" style="whiteSpace=wrap;strokeWidth=2;" parent="1" vertex="1">
          <mxGeometry x="327" y="357" width="110" height="54" as="geometry" />
        </mxCell>
        <mxCell id="22" value="" style="curved=1;startArrow=none;endArrow=block;exitX=0;exitY=0.64;entryX=0.5;entryY=0;" parent="1" source="5" target="6" edge="1">
          <mxGeometry relative="1" as="geometry">
            <Array as="points">
              <mxPoint x="346" y="87" />
            </Array>
          </mxGeometry>
        </mxCell>
        <mxCell id="23" value="" style="curved=1;startArrow=none;endArrow=block;exitX=1;exitY=0.63;entryX=0.5;entryY=0;" parent="1" source="5" target="7" edge="1">
          <mxGeometry relative="1" as="geometry">
            <Array as="points">
              <mxPoint x="1345" y="87" />
            </Array>
          </mxGeometry>
        </mxCell>
        <mxCell id="24" value="" style="curved=1;startArrow=none;endArrow=block;exitX=0.08;exitY=1;entryX=0.5;entryY=0;" parent="1" source="6" target="8" edge="1">
          <mxGeometry relative="1" as="geometry">
            <Array as="points">
              <mxPoint x="222" y="191" />
            </Array>
          </mxGeometry>
        </mxCell>
        <mxCell id="25" value="" style="curved=1;startArrow=none;endArrow=block;exitX=0.92;exitY=1;entryX=0.5;entryY=0;" parent="1" source="6" target="9" edge="1">
          <mxGeometry relative="1" as="geometry">
            <Array as="points">
              <mxPoint x="471" y="191" />
            </Array>
          </mxGeometry>
        </mxCell>
        <mxCell id="26" value="" style="curved=1;startArrow=none;endArrow=block;exitX=0.09;exitY=1;entryX=0.5;entryY=0;" parent="1" source="8" target="10" edge="1">
          <mxGeometry relative="1" as="geometry">
            <Array as="points">
              <mxPoint x="63" y="295" />
            </Array>
          </mxGeometry>
        </mxCell>
        <mxCell id="27" value="" style="curved=1;startArrow=none;endArrow=block;exitX=0.5;exitY=1;entryX=0.5;entryY=0;" parent="1" source="8" target="11" edge="1">
          <mxGeometry relative="1" as="geometry">
            <Array as="points" />
          </mxGeometry>
        </mxCell>
        <mxCell id="28" value="" style="curved=1;startArrow=none;endArrow=block;exitX=0.91;exitY=1;entryX=0.5;entryY=0;" parent="1" source="8" target="12" edge="1">
          <mxGeometry relative="1" as="geometry">
            <Array as="points">
              <mxPoint x="382" y="295" />
            </Array>
          </mxGeometry>
        </mxCell>
        <mxCell id="29" value="" style="curved=1;startArrow=none;endArrow=block;exitX=0;exitY=0.5;exitDx=0;exitDy=0;" parent="1" source="7" target="2OZbqQMhjZf6XUCMtv5C-38" edge="1">
          <mxGeometry relative="1" as="geometry">
            <Array as="points">
              <mxPoint x="804" y="154.82" />
            </Array>
            <mxPoint x="1275" y="111.99999999999994" as="sourcePoint" />
            <mxPoint x="804" y="179.82" as="targetPoint" />
          </mxGeometry>
        </mxCell>
        <mxCell id="30" value="" style="curved=1;startArrow=none;endArrow=block;exitX=0.5;exitY=1;" parent="1" source="7" target="2OZbqQMhjZf6XUCMtv5C-39" edge="1">
          <mxGeometry relative="1" as="geometry">
            <Array as="points" />
            <mxPoint x="1344.5" y="216" as="targetPoint" />
          </mxGeometry>
        </mxCell>
        <mxCell id="31" value="" style="curved=1;startArrow=none;endArrow=block;exitX=1;exitY=0.67;" parent="1" source="7" target="2OZbqQMhjZf6XUCMtv5C-40" edge="1">
          <mxGeometry relative="1" as="geometry">
            <Array as="points">
              <mxPoint x="1620" y="170" />
              <mxPoint x="1690" y="200" />
            </Array>
            <mxPoint x="1914.5" y="216" as="targetPoint" />
          </mxGeometry>
        </mxCell>
        <mxCell id="2OZbqQMhjZf6XUCMtv5C-38" value="Melbourne CBD Headquaters" style="rounded=0;whiteSpace=wrap;html=1;" vertex="1" parent="1">
          <mxGeometry x="677" y="210" width="210" height="60" as="geometry" />
        </mxCell>
        <mxCell id="2OZbqQMhjZf6XUCMtv5C-39" value="Essendon Fields Branch office" style="rounded=0;whiteSpace=wrap;html=1;" vertex="1" parent="1">
          <mxGeometry x="1260" y="210" width="230" height="60" as="geometry" />
        </mxCell>
        <mxCell id="2OZbqQMhjZf6XUCMtv5C-40" value="Dandenong Branch office" style="rounded=0;whiteSpace=wrap;html=1;" vertex="1" parent="1">
          <mxGeometry x="1600" y="213" width="180" height="60" as="geometry" />
        </mxCell>
        <mxCell id="2OZbqQMhjZf6XUCMtv5C-41" value="Derimutt Branch Office" style="rounded=0;whiteSpace=wrap;html=1;" vertex="1" parent="1">
          <mxGeometry x="1880" y="210" width="200" height="60" as="geometry" />
        </mxCell>
        <mxCell id="2OZbqQMhjZf6XUCMtv5C-42" value="" style="endArrow=classic;html=1;rounded=0;exitX=1;exitY=0.25;exitDx=0;exitDy=0;entryX=0.5;entryY=0;entryDx=0;entryDy=0;" edge="1" parent="1" source="7" target="2OZbqQMhjZf6XUCMtv5C-41">
          <mxGeometry width="50" height="50" relative="1" as="geometry">
            <mxPoint x="1520" y="240" as="sourcePoint" />
            <mxPoint x="1570" y="190" as="targetPoint" />
            <Array as="points">
              <mxPoint x="1930" y="170" />
            </Array>
          </mxGeometry>
        </mxCell>
        <mxCell id="2OZbqQMhjZf6XUCMtv5C-43" value="Servers subnet: 42.50.0.0/24 [DHCP range( 42.50.0.1- 42.50.0.254)]" style="rounded=0;whiteSpace=wrap;html=1;" vertex="1" parent="1">
          <mxGeometry x="677" y="390" width="443" height="60" as="geometry" />
        </mxCell>
        <mxCell id="2OZbqQMhjZf6XUCMtv5C-44" value="" style="endArrow=classic;html=1;rounded=0;exitX=0;exitY=0.5;exitDx=0;exitDy=0;entryX=0;entryY=0.5;entryDx=0;entryDy=0;" edge="1" parent="1" source="2OZbqQMhjZf6XUCMtv5C-38" target="2OZbqQMhjZf6XUCMtv5C-43">
          <mxGeometry width="50" height="50" relative="1" as="geometry">
            <mxPoint x="900" y="380" as="sourcePoint" />
            <mxPoint x="950" y="330" as="targetPoint" />
            <Array as="points">
              <mxPoint x="600" y="310" />
            </Array>
          </mxGeometry>
        </mxCell>
        <mxCell id="2OZbqQMhjZf6XUCMtv5C-45" value="" style="endArrow=classic;html=1;rounded=0;exitX=0;exitY=0.5;exitDx=0;exitDy=0;entryX=0;entryY=0.5;entryDx=0;entryDy=0;" edge="1" parent="1" source="2OZbqQMhjZf6XUCMtv5C-38" target="2OZbqQMhjZf6XUCMtv5C-58">
          <mxGeometry width="50" height="50" relative="1" as="geometry">
            <mxPoint x="687" y="250" as="sourcePoint" />
            <mxPoint x="687" y="391" as="targetPoint" />
            <Array as="points">
              <mxPoint x="580" y="330" />
            </Array>
          </mxGeometry>
        </mxCell>
        <mxCell id="2OZbqQMhjZf6XUCMtv5C-46" value="" style="endArrow=classic;html=1;rounded=0;exitX=0;exitY=0.5;exitDx=0;exitDy=0;entryX=0;entryY=0.5;entryDx=0;entryDy=0;" edge="1" parent="1" source="2OZbqQMhjZf6XUCMtv5C-38" target="2OZbqQMhjZf6XUCMtv5C-59">
          <mxGeometry width="50" height="50" relative="1" as="geometry">
            <mxPoint x="697" y="260" as="sourcePoint" />
            <mxPoint x="697" y="401" as="targetPoint" />
            <Array as="points">
              <mxPoint x="560" y="350" />
            </Array>
          </mxGeometry>
        </mxCell>
        <mxCell id="2OZbqQMhjZf6XUCMtv5C-47" value="" style="endArrow=classic;html=1;rounded=0;exitX=0;exitY=0.5;exitDx=0;exitDy=0;entryX=0;entryY=0.5;entryDx=0;entryDy=0;" edge="1" parent="1" source="2OZbqQMhjZf6XUCMtv5C-38" target="2OZbqQMhjZf6XUCMtv5C-60">
          <mxGeometry width="50" height="50" relative="1" as="geometry">
            <mxPoint x="707" y="270" as="sourcePoint" />
            <mxPoint x="707" y="411" as="targetPoint" />
            <Array as="points">
              <mxPoint x="540" y="370" />
            </Array>
          </mxGeometry>
        </mxCell>
        <mxCell id="2OZbqQMhjZf6XUCMtv5C-48" value="" style="endArrow=classic;html=1;rounded=0;entryX=0;entryY=0.5;entryDx=0;entryDy=0;exitX=0;exitY=0.5;exitDx=0;exitDy=0;" edge="1" parent="1" source="2OZbqQMhjZf6XUCMtv5C-38" target="2OZbqQMhjZf6XUCMtv5C-61">
          <mxGeometry width="50" height="50" relative="1" as="geometry">
            <mxPoint x="680" y="250" as="sourcePoint" />
            <mxPoint x="717" y="421" as="targetPoint" />
            <Array as="points">
              <mxPoint x="520" y="390" />
            </Array>
          </mxGeometry>
        </mxCell>
        <mxCell id="2OZbqQMhjZf6XUCMtv5C-49" value="" style="endArrow=classic;html=1;rounded=0;entryX=0;entryY=0.5;entryDx=0;entryDy=0;exitX=-0.005;exitY=0.564;exitDx=0;exitDy=0;exitPerimeter=0;" edge="1" parent="1" source="2OZbqQMhjZf6XUCMtv5C-38" target="2OZbqQMhjZf6XUCMtv5C-63">
          <mxGeometry width="50" height="50" relative="1" as="geometry">
            <mxPoint x="680" y="240" as="sourcePoint" />
            <mxPoint x="727" y="431" as="targetPoint" />
            <Array as="points">
              <mxPoint x="500" y="410" />
            </Array>
          </mxGeometry>
        </mxCell>
        <mxCell id="2OZbqQMhjZf6XUCMtv5C-50" value="" style="endArrow=classic;html=1;rounded=0;entryX=0;entryY=0.5;entryDx=0;entryDy=0;" edge="1" parent="1" target="2OZbqQMhjZf6XUCMtv5C-64">
          <mxGeometry width="50" height="50" relative="1" as="geometry">
            <mxPoint x="677" y="240" as="sourcePoint" />
            <mxPoint x="737" y="441" as="targetPoint" />
            <Array as="points">
              <mxPoint x="480" y="430" />
            </Array>
          </mxGeometry>
        </mxCell>
        <mxCell id="2OZbqQMhjZf6XUCMtv5C-58" value="CCTV subnet: 42.50.1.0/24 [DHCP range( 42.50.1.1- 42.50.1.254)]" style="rounded=0;whiteSpace=wrap;html=1;" vertex="1" parent="1">
          <mxGeometry x="677" y="470" width="443" height="60" as="geometry" />
        </mxCell>
        <mxCell id="2OZbqQMhjZf6XUCMtv5C-59" value="Network Management subnet: 42.50.2.0/24 [DHCP range( 42.50.2.1- 42.50.2.254)]" style="rounded=0;whiteSpace=wrap;html=1;" vertex="1" parent="1">
          <mxGeometry x="677" y="550" width="443" height="60" as="geometry" />
        </mxCell>
        <mxCell id="2OZbqQMhjZf6XUCMtv5C-60" value="VPN users subnet: 42.50.3.0/24 [DHCP range( 42.50.3.1- 42.50.3.254)]" style="rounded=0;whiteSpace=wrap;html=1;" vertex="1" parent="1">
          <mxGeometry x="677" y="620" width="443" height="60" as="geometry" />
        </mxCell>
        <mxCell id="2OZbqQMhjZf6XUCMtv5C-61" value="Corporate Wi-Fi subnet: 42.50.4.0/24 [DHCP range( 42.50.4.1- 42.50.4.254)]" style="rounded=0;whiteSpace=wrap;html=1;" vertex="1" parent="1">
          <mxGeometry x="677" y="700" width="443" height="60" as="geometry" />
        </mxCell>
        <mxCell id="2OZbqQMhjZf6XUCMtv5C-62" value="Staff Wired Data subnet: 42.50.7.0/24 [DHCP range( 42.50.7.1- 42.50.7.254)]" style="rounded=0;whiteSpace=wrap;html=1;" vertex="1" parent="1">
          <mxGeometry x="677" y="940" width="443" height="60" as="geometry" />
        </mxCell>
        <mxCell id="2OZbqQMhjZf6XUCMtv5C-63" value="Guest Wi-Fi subnet: 42.50.5.0/24 [DHCP range( 42.50.5.1- 42.50.5.254)]" style="rounded=0;whiteSpace=wrap;html=1;" vertex="1" parent="1">
          <mxGeometry x="677" y="780" width="443" height="60" as="geometry" />
        </mxCell>
        <mxCell id="2OZbqQMhjZf6XUCMtv5C-64" value="Iot Devices Wi-Fi subnet: 42.50.6.0/24 [DHCP range( 42.50.6.1- 42.50.6.254)]" style="rounded=0;whiteSpace=wrap;html=1;" vertex="1" parent="1">
          <mxGeometry x="677" y="860" width="443" height="60" as="geometry" />
        </mxCell>
        <mxCell id="2OZbqQMhjZf6XUCMtv5C-65" value="" style="endArrow=classic;html=1;rounded=0;entryX=0;entryY=0.5;entryDx=0;entryDy=0;exitX=0;exitY=0.5;exitDx=0;exitDy=0;" edge="1" parent="1" source="2OZbqQMhjZf6XUCMtv5C-38" target="2OZbqQMhjZf6XUCMtv5C-62">
          <mxGeometry width="50" height="50" relative="1" as="geometry">
            <mxPoint x="687" y="250" as="sourcePoint" />
            <mxPoint x="687" y="930" as="targetPoint" />
            <Array as="points">
              <mxPoint x="460" y="450" />
            </Array>
          </mxGeometry>
        </mxCell>
        <mxCell id="2OZbqQMhjZf6XUCMtv5C-66" value="AWS subnet: 42.50.8.0/24 [DHCP range( 42.50.8.1- 42.50.8.254)]" style="rounded=0;whiteSpace=wrap;html=1;" vertex="1" parent="1">
          <mxGeometry x="677" y="1020" width="443" height="60" as="geometry" />
        </mxCell>
        <mxCell id="2OZbqQMhjZf6XUCMtv5C-67" value="" style="endArrow=classic;html=1;rounded=0;entryX=0;entryY=0.5;entryDx=0;entryDy=0;exitX=0;exitY=0.5;exitDx=0;exitDy=0;" edge="1" parent="1" source="2OZbqQMhjZf6XUCMtv5C-38" target="2OZbqQMhjZf6XUCMtv5C-66">
          <mxGeometry width="50" height="50" relative="1" as="geometry">
            <mxPoint x="687" y="250" as="sourcePoint" />
            <mxPoint x="687" y="1010" as="targetPoint" />
            <Array as="points">
              <mxPoint x="440" y="470" />
            </Array>
          </mxGeometry>
        </mxCell>
        <mxCell id="2OZbqQMhjZf6XUCMtv5C-68" value="CCTV subnet: 42.50.10.0/24 [DHCP range( 42.50.10.1- 42.50.10.254)]" style="rounded=0;whiteSpace=wrap;html=1;" vertex="1" parent="1">
          <mxGeometry x="1157" y="390" width="473" height="60" as="geometry" />
        </mxCell>
        <mxCell id="2OZbqQMhjZf6XUCMtv5C-69" value="Network Management subnet: 42.50.11.0/24 [DHCP range( 42.50.11.1- 42.50.11.254)]" style="rounded=0;whiteSpace=wrap;html=1;" vertex="1" parent="1">
          <mxGeometry x="1157" y="470" width="473" height="60" as="geometry" />
        </mxCell>
        <mxCell id="2OZbqQMhjZf6XUCMtv5C-70" value="Corporate Wi-Fi subnet: 42.50.12.0/24 [DHCP range( 42.50.12.1- 42.50.12.254)]" style="rounded=0;whiteSpace=wrap;html=1;" vertex="1" parent="1">
          <mxGeometry x="1157" y="550" width="473" height="60" as="geometry" />
        </mxCell>
        <mxCell id="2OZbqQMhjZf6XUCMtv5C-71" value="Staff Wired Data subnet: 42.50.15.0/24 [DHCP range( 42.50.15.1- 42.50.15.254)]" style="rounded=0;whiteSpace=wrap;html=1;" vertex="1" parent="1">
          <mxGeometry x="1157" y="790" width="473" height="60" as="geometry" />
        </mxCell>
        <mxCell id="2OZbqQMhjZf6XUCMtv5C-72" value="Guest Wi-Fi subnet: 42.50.13.0/24 [DHCP range( 42.50.13.1- 42.50.13.254)]" style="rounded=0;whiteSpace=wrap;html=1;" vertex="1" parent="1">
          <mxGeometry x="1157" y="630" width="473" height="60" as="geometry" />
        </mxCell>
        <mxCell id="2OZbqQMhjZf6XUCMtv5C-73" value="Iot Devices Wi-Fi subnet: 42.50.14.0/24 [DHCP range( 42.50.14.1- 42.50.14.254)]" style="rounded=0;whiteSpace=wrap;html=1;" vertex="1" parent="1">
          <mxGeometry x="1157" y="710" width="473" height="60" as="geometry" />
        </mxCell>
        <mxCell id="2OZbqQMhjZf6XUCMtv5C-75" value="" style="endArrow=classic;html=1;rounded=0;exitX=1;exitY=0.5;exitDx=0;exitDy=0;entryX=1;entryY=0.5;entryDx=0;entryDy=0;" edge="1" parent="1" source="2OZbqQMhjZf6XUCMtv5C-39" target="2OZbqQMhjZf6XUCMtv5C-68">
          <mxGeometry width="50" height="50" relative="1" as="geometry">
            <mxPoint x="1290" y="460" as="sourcePoint" />
            <mxPoint x="1340" y="410" as="targetPoint" />
            <Array as="points">
              <mxPoint x="1690" y="330" />
            </Array>
          </mxGeometry>
        </mxCell>
        <mxCell id="2OZbqQMhjZf6XUCMtv5C-76" value="" style="endArrow=classic;html=1;rounded=0;exitX=1;exitY=0.5;exitDx=0;exitDy=0;entryX=1;entryY=0.5;entryDx=0;entryDy=0;" edge="1" parent="1" source="2OZbqQMhjZf6XUCMtv5C-39" target="2OZbqQMhjZf6XUCMtv5C-69">
          <mxGeometry width="50" height="50" relative="1" as="geometry">
            <mxPoint x="1391" y="282" as="sourcePoint" />
            <mxPoint x="1640" y="430" as="targetPoint" />
            <Array as="points">
              <mxPoint x="1700" y="340" />
            </Array>
          </mxGeometry>
        </mxCell>
        <mxCell id="2OZbqQMhjZf6XUCMtv5C-77" value="" style="endArrow=classic;html=1;rounded=0;exitX=1;exitY=0.5;exitDx=0;exitDy=0;entryX=1;entryY=0.5;entryDx=0;entryDy=0;" edge="1" parent="1" source="2OZbqQMhjZf6XUCMtv5C-39" target="2OZbqQMhjZf6XUCMtv5C-70">
          <mxGeometry width="50" height="50" relative="1" as="geometry">
            <mxPoint x="1401" y="292" as="sourcePoint" />
            <mxPoint x="1650" y="440" as="targetPoint" />
            <Array as="points">
              <mxPoint x="1710" y="350" />
            </Array>
          </mxGeometry>
        </mxCell>
        <mxCell id="2OZbqQMhjZf6XUCMtv5C-78" value="" style="endArrow=classic;html=1;rounded=0;exitX=1;exitY=0.5;exitDx=0;exitDy=0;entryX=1;entryY=0.5;entryDx=0;entryDy=0;" edge="1" parent="1" source="2OZbqQMhjZf6XUCMtv5C-39" target="2OZbqQMhjZf6XUCMtv5C-72">
          <mxGeometry width="50" height="50" relative="1" as="geometry">
            <mxPoint x="1411" y="302" as="sourcePoint" />
            <mxPoint x="1670" y="570" as="targetPoint" />
            <Array as="points">
              <mxPoint x="1720" y="360" />
            </Array>
          </mxGeometry>
        </mxCell>
        <mxCell id="2OZbqQMhjZf6XUCMtv5C-79" value="" style="endArrow=classic;html=1;rounded=0;exitX=1;exitY=0.5;exitDx=0;exitDy=0;entryX=1;entryY=0.412;entryDx=0;entryDy=0;entryPerimeter=0;" edge="1" parent="1" source="2OZbqQMhjZf6XUCMtv5C-39" target="2OZbqQMhjZf6XUCMtv5C-73">
          <mxGeometry width="50" height="50" relative="1" as="geometry">
            <mxPoint x="1421" y="312" as="sourcePoint" />
            <mxPoint x="1710" y="590" as="targetPoint" />
            <Array as="points">
              <mxPoint x="1730" y="370" />
            </Array>
          </mxGeometry>
        </mxCell>
        <mxCell id="2OZbqQMhjZf6XUCMtv5C-80" value="" style="endArrow=classic;html=1;rounded=0;exitX=1;exitY=0.5;exitDx=0;exitDy=0;entryX=1;entryY=0.5;entryDx=0;entryDy=0;" edge="1" parent="1" source="2OZbqQMhjZf6XUCMtv5C-39" target="2OZbqQMhjZf6XUCMtv5C-71">
          <mxGeometry width="50" height="50" relative="1" as="geometry">
            <mxPoint x="1431" y="322" as="sourcePoint" />
            <mxPoint x="1730" y="660" as="targetPoint" />
            <Array as="points">
              <mxPoint x="1740" y="380" />
            </Array>
          </mxGeometry>
        </mxCell>
        <mxCell id="2OZbqQMhjZf6XUCMtv5C-81" value="Branches IP subnetting network&lt;br&gt;only highlighting one branch subnet information&amp;nbsp;&amp;nbsp;" style="ellipse;shape=cloud;whiteSpace=wrap;html=1;" vertex="1" parent="1">
          <mxGeometry x="1720" y="240" width="230" height="120" as="geometry" />
        </mxCell>
      </root>
    </mxGraphModel>
  </diagram>
</mxfile>
